<svg width="132" height="29" viewBox="0 0 132 29" fill="none" xmlns="http://www.w3.org/2000/svg">
<path d="M39.0278 5H43.0284V19.3415C43.0284 20.6599 42.7528 21.8266 42.2016 22.8415C41.6593 23.8469 40.8903 24.6247 39.8946 25.1748C38.8989 25.7249 37.7743 26 36.5209 26C34.4673 26 32.867 25.4451 31.7202 24.3354C30.5734 23.2161 30 21.6369 30 19.5976H34.0272C34.0272 20.6125 34.2272 21.3618 34.6273 21.8455C35.0273 22.3293 35.6585 22.5711 36.5209 22.5711C37.2854 22.5711 37.8944 22.2913 38.3478 21.7317C38.8011 21.1721 39.0278 20.3753 39.0278 19.3415V5Z" fill="#CA3940"/>
<path d="M54.8432 24.1504C53.892 25.3835 52.5763 26 50.8961 26C49.3492 26 48.1668 25.5257 47.3489 24.5772C46.5399 23.6287 46.1266 22.2392 46.1088 20.4085V10.3211H49.9626V20.2663C49.9626 21.8692 50.6471 22.6707 52.0162 22.6707C53.323 22.6707 54.2209 22.187 54.7099 21.2195V10.3211H58.5771V25.7154H54.9499L54.8432 24.1504Z" fill="#CA3940"/>
<path d="M69.2985 21.4614C69.2985 20.9587 69.0629 20.565 68.5917 20.2805C68.1294 19.9864 67.3827 19.7256 66.3514 19.498C62.9199 18.7297 61.2041 17.1741 61.2041 14.8313C61.2041 13.4654 61.733 12.3272 62.791 11.4167C63.8578 10.4966 65.2491 10.0366 66.9648 10.0366C68.7962 10.0366 70.2586 10.4966 71.3521 11.4167C72.4544 12.3367 73.0056 13.5318 73.0056 15.002H69.1518C69.1518 14.414 68.974 13.9302 68.6184 13.5508C68.2628 13.1619 67.7072 12.9675 66.9515 12.9675C66.3025 12.9675 65.8002 13.124 65.4446 13.437C65.089 13.75 64.9112 14.1484 64.9112 14.6321C64.9112 15.0874 65.1113 15.4573 65.5113 15.7419C65.9202 16.0169 66.6048 16.2588 67.5649 16.4675C68.525 16.6667 69.334 16.8943 69.9919 17.1504C72.0277 17.9472 73.0456 19.3272 73.0456 21.2906C73.0456 22.6944 72.4811 23.8327 71.3521 24.7053C70.223 25.5684 68.7651 26 66.9782 26C65.7691 26 64.6934 25.7724 63.7511 25.3171C62.8176 24.8523 62.0842 24.2215 61.5508 23.4248C61.0174 22.6186 60.7507 21.7507 60.7507 20.8211H64.4045C64.4401 21.5515 64.6934 22.1111 65.1646 22.5C65.6358 22.8889 66.267 23.0833 67.0582 23.0833C67.7961 23.0833 68.3517 22.9363 68.7251 22.6423C69.1073 22.3388 69.2985 21.9451 69.2985 21.4614Z" fill="#CA3940"/>
<path d="M80.1532 6.53659V10.3211H82.6202V13.3374H80.1532V21.0203C80.1532 21.5894 80.2555 21.9973 80.4599 22.2439C80.6644 22.4905 81.0556 22.6138 81.6334 22.6138C82.0601 22.6138 82.438 22.5806 82.7669 22.5142V25.6301C82.0112 25.8767 81.2334 26 80.4333 26C77.7307 26 76.3527 24.544 76.2994 21.6321V13.3374H74.1924V10.3211H76.2994V6.53659H80.1532Z" fill="#CA3940"/>
<path d="M92.2615 18.502H84.7538V15.187H92.2615V18.502Z" fill="#CA3940"/>
<path d="M101.996 26C99.8802 26 98.1556 25.3076 96.8221 23.9228C95.4974 22.5379 94.8351 20.6931 94.8351 18.3882V17.9898C94.8351 16.4438 95.1152 15.0637 95.6752 13.8496C96.2353 12.626 97.0265 11.687 98.0489 11.0325C99.0801 10.3686 100.254 10.0366 101.569 10.0366C103.543 10.0366 105.094 10.7005 106.223 12.0285C107.361 13.3564 107.93 15.2392 107.93 17.6768V19.3557H98.7423C98.8668 20.3611 99.2402 21.1673 99.8625 21.7744C100.494 22.3814 101.289 22.685 102.249 22.685C103.734 22.685 104.894 22.1111 105.73 20.9634L107.623 23.2256C107.046 24.0982 106.263 24.7812 105.277 25.2744C104.29 25.7581 103.196 26 101.996 26ZM101.556 13.3659C100.791 13.3659 100.169 13.6409 99.6891 14.1911C99.2179 14.7412 98.9157 15.5285 98.7823 16.5528H104.143V16.2256C104.125 15.315 103.894 14.6131 103.45 14.1199C103.005 13.6172 102.374 13.3659 101.556 13.3659Z" fill="#CA3940"/>
<path d="M118.492 25.7154C118.314 25.3455 118.185 24.8855 118.105 24.3354C117.171 25.4451 115.958 26 114.464 26C113.051 26 111.877 25.5637 110.944 24.6911C110.019 23.8184 109.557 22.7182 109.557 21.3902C109.557 19.7588 110.122 18.5068 111.251 17.6341C112.389 16.7615 114.029 16.3205 116.171 16.311H117.945V15.4289C117.945 14.7175 117.771 14.1484 117.425 13.7215C117.087 13.2947 116.549 13.0813 115.811 13.0813C115.162 13.0813 114.651 13.2473 114.278 13.5793C113.913 13.9112 113.731 14.3665 113.731 14.9451H109.877C109.877 14.0535 110.135 13.2283 110.651 12.4695C111.166 11.7107 111.895 11.1179 112.837 10.6911C113.78 10.2547 114.838 10.0366 116.011 10.0366C117.789 10.0366 119.198 10.5156 120.238 11.4736C121.287 12.4221 121.812 13.7595 121.812 15.4858V22.1585C121.821 23.6192 122.012 24.7243 122.385 25.4736V25.7154H118.492ZM115.304 22.8557C115.873 22.8557 116.398 22.7229 116.878 22.4573C117.358 22.1822 117.714 21.8171 117.945 21.3618V18.7154H116.505C114.575 18.7154 113.549 19.4268 113.424 20.8496L113.411 21.0915C113.411 21.6037 113.58 22.0257 113.918 22.3577C114.255 22.6897 114.718 22.8557 115.304 22.8557Z" fill="#CA3940"/>
<path d="M129.386 6.53659V10.3211H131.853V13.3374H129.386V21.0203C129.386 21.5894 129.489 21.9973 129.693 22.2439C129.898 22.4905 130.289 22.6138 130.867 22.6138C131.293 22.6138 131.671 22.5806 132 22.5142V25.6301C131.244 25.8767 130.466 26 129.666 26C126.964 26 125.586 24.544 125.532 21.6321V13.3374H123.426V10.3211H125.532V6.53659H129.386Z" fill="#CA3940"/>
<path d="M14.7369 1.85769L24.2631 7.35769C24.7414 7.63383 24.9053 8.24542 24.6292 8.72371L13.6292 27.7763C13.353 28.2546 12.7414 28.4184 12.2631 28.1423L2.73685 22.6423C2.17833 22.2125 2.22073 21.8829 2.37083 21.2763L13.3708 2.22371C13.3708 2.22371 13.6141 1.85769 14 1.85769C14.3858 1.85769 14.7369 1.85769 14.7369 1.85769Z" fill="#CA3940"/>
<rect x="13.6753" y="2.39953" width="11.6484" height="22" rx="1" transform="rotate(30 13.6753 2.39953)" fill="white"/>
<rect x="5.23686" y="18.3122" width="10" height="2" transform="rotate(30 5.23686 18.3122)" fill="#202473"/>
<path d="M0 8.99999C3 7 11 7 14 9L11 14H3L0 8.99999Z" fill="#90303C"/>
<path d="M2.5 10.5C3.5 10 4 9.5 7 9.5C10 9.5 11 11 12 10.5" stroke="url(#paint0_linear)"/>
<path d="M3.5 11C3 10.6667 2 9.5 2 7.5C2 5 4 3 4 1.5M7 11.5C7 11 7.5 9.5 7.5 7.5C7.5 5.5 6.5 2 7 1M10 11.5C10.5 9 11 8 10.5 6C10 4 10 3 10 2" stroke="url(#paint1_linear)" stroke-width="0.5" stroke-linecap="round"/>
<path d="M10.2071 11C10.7071 10.6667 11.7071 9.5 11.7071 7.5C11.7071 5 9.70711 3 9.70711 1.5M6.70711 11.5C6.70711 11 6.20711 9.5 6.20711 7.5C6.20711 5.5 7.20711 2 6.70711 1M3.70711 11.5C3.20711 9 2.70711 8 3.20711 6C3.70711 4 3.70711 3 3.70711 2" stroke="url(#paint2_linear)" stroke-width="0.5" stroke-linecap="round"/>
<path d="M4 11C5 10.5 5.5 10 8.5 10C11.5 10 12.5 11.5 13.5 11" stroke="url(#paint3_linear)"/>
<path d="M0 9C4 11 10 11 14 9L11 15C11 15 10 17 7 17C4 17 3 15 3 15L0 9Z" fill="#CA3940"/>
<defs>
<linearGradient id="paint0_linear" x1="6" y1="9" x2="10" y2="10.5" gradientUnits="userSpaceOnUse">
<stop stop-color="#DEE135"/>
<stop offset="1" stop-color="#DEE135" stop-opacity="0"/>
</linearGradient>
<linearGradient id="paint1_linear" x1="8" y1="8" x2="7.5" y2="-1.5" gradientUnits="userSpaceOnUse">
<stop stop-color="#DEE135"/>
<stop offset="1" stop-color="#DEE135" stop-opacity="0"/>
</linearGradient>
<linearGradient id="paint2_linear" x1="5.70711" y1="8" x2="6.20711" y2="-1.5" gradientUnits="userSpaceOnUse">
<stop stop-color="#DEE135"/>
<stop offset="1" stop-color="#DEE135" stop-opacity="0"/>
</linearGradient>
<linearGradient id="paint3_linear" x1="8.75" y1="10" x2="8.75" y2="11.102" gradientUnits="userSpaceOnUse">
<stop stop-color="#DEE135"/>
<stop offset="0.732603" stop-color="#DEE135" stop-opacity="0"/>
</linearGradient>
</defs>
</svg>
